<?xml version="1.0" standalone="no"?>
<!DOCTYPE svg PUBLIC "-//W3C//DTD SVG 20010904//EN"
 "http://www.w3.org/TR/2001/REC-SVG-20010904/DTD/svg10.dtd">
<svg version="1.0" xmlns="http://www.w3.org/2000/svg"
 width="180.000000pt" height="152.000000pt" viewBox="0 0 180.000000 152.000000"
 preserveAspectRatio="xMidYMid meet">

<g transform="translate(0.000000,152.000000) scale(0.100000,-0.100000)"
fill="#000000" stroke="none">
<path d="M0 760 l0 -760 900 0 900 0 0 760 0 760 -900 0 -900 0 0 -760z m1079
494 l31 -26 0 -154 c0 -130 -2 -154 -15 -154 -11 0 -15 12 -15 50 l0 50 -60 0
-60 0 0 -50 c0 -38 -4 -50 -15 -50 -11 0 -15 12 -15 50 0 38 -4 50 -15 50 -8
0 -15 5 -15 10 0 6 7 13 15 16 12 5 15 25 15 91 0 80 2 86 29 114 37 37 79 38
120 3z m-539 -143 l0 -160 47 -3 c26 -2 48 -9 51 -15 3 -10 -14 -13 -62 -13
l-66 0 0 168 c0 93 3 172 7 175 19 20 23 -7 23 -152z m328 147 c-3 -8 -29 -14
-72 -16 l-67 -3 3 -37 c3 -36 4 -37 46 -40 28 -2 42 -8 42 -17 0 -9 -14 -15
-42 -17 l-43 -3 0 -85 0 -85 64 -5 c39 -3 66 -10 69 -17 3 -10 -17 -13 -77
-13 l-81 0 0 101 c0 92 -2 101 -20 106 -11 3 -20 9 -20 14 0 4 9 13 20 19 16
8 20 21 20 60 l0 50 81 0 c60 0 80 -3 77 -12z m452 -165 c-1 -202 5 -198 -80
-43 -30 55 -58 100 -62 100 -5 0 -8 -52 -8 -115 0 -96 -3 -115 -15 -115 -13 0
-15 26 -15 170 0 94 3 170 8 170 7 0 77 -118 111 -187 9 -18 19 -32 24 -33 4
0 7 52 7 115 0 96 3 115 15 115 13 0 15 -26 15 -177z m-362 -235 c18 -18 14
-45 -8 -61 -20 -14 -20 -15 7 -56 20 -32 31 -40 46 -35 16 5 17 3 9 -11 -5
-10 -8 -25 -5 -34 3 -13 -6 -16 -59 -16 -59 0 -63 1 -85 34 -28 42 -28 40 3
86 14 21 23 44 20 52 -15 39 42 71 72 41z m-138 -78 c0 -6 -60 -10 -162 -9
-97 1 -153 4 -138 9 37 12 300 12 300 0z m500 0 c15 -5 -41 -8 -137 -9 -103
-1 -163 3 -163 9 0 12 263 12 300 0z m-680 -139 c36 -26 39 -86 5 -124 -28
-31 -82 -57 -119 -57 -14 0 -37 10 -52 23 -26 23 -26 24 -10 55 9 18 22 32 28
32 6 0 4 -8 -5 -18 -35 -38 -14 -72 45 -72 29 0 46 8 73 33 48 45 54 79 20
113 -24 24 -32 26 -80 21 -90 -9 -170 -61 -223 -145 -75 -117 -36 -206 88
-205 47 1 135 38 159 67 8 9 18 16 24 16 21 0 -34 -46 -86 -73 -70 -35 -170
-38 -210 -7 -34 27 -48 77 -36 131 13 55 23 73 72 126 89 97 234 136 307 84z
m520 -126 c0 -8 -9 -15 -20 -15 -11 0 -20 7 -20 15 0 8 9 15 20 15 11 0 20 -7
20 -15z m320 4 c0 -6 -5 -20 -11 -31 -11 -20 -9 -21 19 -15 17 4 33 3 36 -1 3
-5 -11 -28 -30 -51 -33 -42 -44 -84 -25 -95 15 -10 64 13 99 47 17 17 32 26
32 21 0 -6 -12 -22 -27 -36 -81 -75 -160 -60 -131 24 6 18 14 37 19 42 8 9 1
36 -11 36 -4 0 -29 -27 -56 -61 -27 -33 -62 -68 -78 -76 -28 -15 -31 -14 -47
6 l-18 22 -30 -22 c-32 -24 -81 -20 -81 6 0 18 -16 20 -26 4 -3 -6 -22 -18
-42 -26 -31 -13 -37 -13 -49 0 -10 10 -13 24 -8 45 8 39 61 112 80 112 21 0
20 -5 -25 -67 -44 -61 -50 -83 -22 -83 24 0 35 9 122 94 66 65 83 76 111 76
19 0 42 -7 52 -14 16 -13 15 -17 -18 -67 -19 -29 -35 -59 -35 -66 0 -48 98 39
152 135 28 49 48 66 48 41z m-440 -19 c8 -15 7 -27 -4 -47 -17 -33 -101 -116
-134 -133 -28 -14 -56 -6 -48 15 7 20 4 19 -40 -7 l-37 -22 -18 23 -18 22 -30
-22 c-42 -31 -81 -20 -81 21 0 23 13 44 54 86 49 50 57 55 91 52 58 -5 65 -26
27 -84 -35 -52 -40 -74 -18 -74 27 0 78 54 102 108 18 41 27 53 35 45 12 -12
8 -29 -25 -105 -24 -55 -1 -50 68 15 57 54 70 89 44 115 -9 9 -8 12 5 12 9 0
21 -9 27 -20z"/>
<path d="M982 1234 c-20 -14 -22 -24 -22 -100 l0 -84 60 0 60 0 0 84 c0 76 -2
86 -22 100 -12 9 -29 16 -38 16 -9 0 -26 -7 -38 -16z"/>
<path d="M910 830 c0 -15 5 -20 18 -18 9 2 17 10 17 18 0 8 -8 16 -17 18 -13
2 -18 -3 -18 -18z"/>
<path d="M886 761 c-44 -49 17 -127 73 -92 11 7 8 18 -14 55 -33 57 -38 60
-59 37z"/>
<path d="M1222 425 c-54 -48 -71 -80 -54 -97 16 -16 54 13 102 75 22 30 40 57
40 60 0 21 -44 1 -88 -38z"/>
<path d="M709 423 c-71 -69 -71 -137 0 -77 29 24 91 105 91 118 0 3 -9 6 -21
6 -11 0 -43 -21 -70 -47z"/>
</g>
</svg>
